<svg xmlns="http://www.w3.org/2000/svg" xmlns:xlink="http://www.w3.org/1999/xlink" viewBox="0 0 8.467 8.467" height="32" width="32"><defs><linearGradient id="a"><stop offset="0" stop-color="#39f286"/><stop offset=".498" stop-color="#aff5f3"/><stop offset="1" stop-color="#a669f7"/></linearGradient><linearGradient gradientUnits="userSpaceOnUse" y2="296.057" x2="8.488" y1="289.145" x1=".012" id="b" xlink:href="#a"/><linearGradient gradientUnits="userSpaceOnUse" y2="7.851" x2="8.467" y1=".59" x1="0" id="c" xlink:href="#a"/><linearGradient gradientUnits="userSpaceOnUse" y2="7.899" x2="8.467" y1=".707" x1="0" id="d" xlink:href="#a"/></defs><path d="m.718 290.737 3.515-2.03 3.516 2.03v4.06l-3.516 2.029-3.515-2.03z" fill="url(#b)" stroke="#000" stroke-width=".255" stroke-linecap="square" stroke-linejoin="round" paint-order="fill markers stroke" transform="translate(0 -288.533)"/><g fill="#1a1a1a" stroke="#000" stroke-width=".265"><path d="M1.984 2.092v1.059l1.059-.612v3.388l-1.059-.61v-.46h-.793v1.06L3.969 7.52V.947Z" fill-opacity=".485"/><path d="M4.498 7.52V.947L7.276 2.55v.92l-1.323.763 1.323.625v1.058z" fill-opacity=".471"/></g><g stroke="#000" stroke-width=".265"><path d="m5.424 2.54.794.458v.305l-.794.459z" fill="url(#c)"/><path d="m5.424 4.657.794.37v.442l-.794.458z" fill="url(#d)"/></g></svg>